<?xml version="1.0" encoding="utf-8" standalone="no"?>
<!DOCTYPE svg PUBLIC "-//W3C//DTD SVG 1.1//EN"
  "http://www.w3.org/Graphics/SVG/1.1/DTD/svg11.dtd">
<svg xmlns:xlink="http://www.w3.org/1999/xlink" width="1152pt" height="576pt" viewBox="0 0 1152 576" xmlns="http://www.w3.org/2000/svg" version="1.1">
 <metadata>
  <rdf:RDF xmlns:dc="http://purl.org/dc/elements/1.1/" xmlns:cc="http://creativecommons.org/ns#" xmlns:rdf="http://www.w3.org/1999/02/22-rdf-syntax-ns#">
   <cc:Work>
    <dc:type rdf:resource="http://purl.org/dc/dcmitype/StillImage"/>
    <dc:date>2022-09-02T16:21:18.611244</dc:date>
    <dc:format>image/svg+xml</dc:format>
    <dc:creator>
     <cc:Agent>
      <dc:title>Matplotlib v3.5.1, https://matplotlib.org/</dc:title>
     </cc:Agent>
    </dc:creator>
   </cc:Work>
  </rdf:RDF>
 </metadata>
 <defs>
  <style type="text/css">*{stroke-linejoin: round; stroke-linecap: butt}</style>
 </defs>
 <g id="figure_1">
  <g id="patch_1">
   <path d="M 0 576 
L 1152 576 
L 1152 0 
L 0 0 
z
" style="fill: #fdf6e3"/>
  </g>
  <g id="axes_1">
   <g id="patch_2">
    <path d="M 144 504 
L 549.818182 504 
L 549.818182 69.12 
L 144 69.12 
z
" style="fill: #eee8d5"/>
   </g>
   <g id="matplotlib.axis_1">
    <g id="xtick_1">
     <g id="line2d_1">
      <path d="M 144 504 
L 144 69.12 
" clip-path="url(#p85d6d7a2e1)" style="fill: none; stroke: #fdf6e3"/>
     </g>
     <g id="line2d_2">
      <defs>
       <path id="m8f50e3a8ce" d="M 0 0 
L 0 3.5 
" style="stroke: #657b83; stroke-width: 0.8"/>
      </defs>
      <g>
       <use xlink:href="#m8f50e3a8ce" x="144" y="504" style="fill: #657b83; stroke: #657b83; stroke-width: 0.8"/>
      </g>
     </g>
     <g id="text_1">
      <!-- 0.0 -->
      <g style="fill: #657b83" transform="translate(136.048438 518.598438)scale(0.1 -0.1)">
       <defs>
        <path id="DejaVuSans-30" d="M 2034 4250 
Q 1547 4250 1301 3770 
Q 1056 3291 1056 2328 
Q 1056 1369 1301 889 
Q 1547 409 2034 409 
Q 2525 409 2770 889 
Q 3016 1369 3016 2328 
Q 3016 3291 2770 3770 
Q 2525 4250 2034 4250 
z
M 2034 4750 
Q 2819 4750 3233 4129 
Q 3647 3509 3647 2328 
Q 3647 1150 3233 529 
Q 2819 -91 2034 -91 
Q 1250 -91 836 529 
Q 422 1150 422 2328 
Q 422 3509 836 4129 
Q 1250 4750 2034 4750 
z
" transform="scale(0.015625)"/>
        <path id="DejaVuSans-2e" d="M 684 794 
L 1344 794 
L 1344 0 
L 684 0 
L 684 794 
z
" transform="scale(0.015625)"/>
       </defs>
       <use xlink:href="#DejaVuSans-30"/>
       <use xlink:href="#DejaVuSans-2e" x="63.623047"/>
       <use xlink:href="#DejaVuSans-30" x="95.410156"/>
      </g>
     </g>
    </g>
    <g id="xtick_2">
     <g id="line2d_3">
      <path d="M 225.163636 504 
L 225.163636 69.12 
" clip-path="url(#p85d6d7a2e1)" style="fill: none; stroke: #fdf6e3"/>
     </g>
     <g id="line2d_4">
      <g>
       <use xlink:href="#m8f50e3a8ce" x="225.163636" y="504" style="fill: #657b83; stroke: #657b83; stroke-width: 0.8"/>
      </g>
     </g>
     <g id="text_2">
      <!-- 0.2 -->
      <g style="fill: #657b83" transform="translate(217.212074 518.598438)scale(0.1 -0.1)">
       <defs>
        <path id="DejaVuSans-32" d="M 1228 531 
L 3431 531 
L 3431 0 
L 469 0 
L 469 531 
Q 828 903 1448 1529 
Q 2069 2156 2228 2338 
Q 2531 2678 2651 2914 
Q 2772 3150 2772 3378 
Q 2772 3750 2511 3984 
Q 2250 4219 1831 4219 
Q 1534 4219 1204 4116 
Q 875 4013 500 3803 
L 500 4441 
Q 881 4594 1212 4672 
Q 1544 4750 1819 4750 
Q 2544 4750 2975 4387 
Q 3406 4025 3406 3419 
Q 3406 3131 3298 2873 
Q 3191 2616 2906 2266 
Q 2828 2175 2409 1742 
Q 1991 1309 1228 531 
z
" transform="scale(0.015625)"/>
       </defs>
       <use xlink:href="#DejaVuSans-30"/>
       <use xlink:href="#DejaVuSans-2e" x="63.623047"/>
       <use xlink:href="#DejaVuSans-32" x="95.410156"/>
      </g>
     </g>
    </g>
    <g id="xtick_3">
     <g id="line2d_5">
      <path d="M 306.327273 504 
L 306.327273 69.12 
" clip-path="url(#p85d6d7a2e1)" style="fill: none; stroke: #fdf6e3"/>
     </g>
     <g id="line2d_6">
      <g>
       <use xlink:href="#m8f50e3a8ce" x="306.327273" y="504" style="fill: #657b83; stroke: #657b83; stroke-width: 0.8"/>
      </g>
     </g>
     <g id="text_3">
      <!-- 0.4 -->
      <g style="fill: #657b83" transform="translate(298.37571 518.598438)scale(0.1 -0.1)">
       <defs>
        <path id="DejaVuSans-34" d="M 2419 4116 
L 825 1625 
L 2419 1625 
L 2419 4116 
z
M 2253 4666 
L 3047 4666 
L 3047 1625 
L 3713 1625 
L 3713 1100 
L 3047 1100 
L 3047 0 
L 2419 0 
L 2419 1100 
L 313 1100 
L 313 1709 
L 2253 4666 
z
" transform="scale(0.015625)"/>
       </defs>
       <use xlink:href="#DejaVuSans-30"/>
       <use xlink:href="#DejaVuSans-2e" x="63.623047"/>
       <use xlink:href="#DejaVuSans-34" x="95.410156"/>
      </g>
     </g>
    </g>
    <g id="xtick_4">
     <g id="line2d_7">
      <path d="M 387.490909 504 
L 387.490909 69.12 
" clip-path="url(#p85d6d7a2e1)" style="fill: none; stroke: #fdf6e3"/>
     </g>
     <g id="line2d_8">
      <g>
       <use xlink:href="#m8f50e3a8ce" x="387.490909" y="504" style="fill: #657b83; stroke: #657b83; stroke-width: 0.8"/>
      </g>
     </g>
     <g id="text_4">
      <!-- 0.6 -->
      <g style="fill: #657b83" transform="translate(379.539347 518.598438)scale(0.1 -0.1)">
       <defs>
        <path id="DejaVuSans-36" d="M 2113 2584 
Q 1688 2584 1439 2293 
Q 1191 2003 1191 1497 
Q 1191 994 1439 701 
Q 1688 409 2113 409 
Q 2538 409 2786 701 
Q 3034 994 3034 1497 
Q 3034 2003 2786 2293 
Q 2538 2584 2113 2584 
z
M 3366 4563 
L 3366 3988 
Q 3128 4100 2886 4159 
Q 2644 4219 2406 4219 
Q 1781 4219 1451 3797 
Q 1122 3375 1075 2522 
Q 1259 2794 1537 2939 
Q 1816 3084 2150 3084 
Q 2853 3084 3261 2657 
Q 3669 2231 3669 1497 
Q 3669 778 3244 343 
Q 2819 -91 2113 -91 
Q 1303 -91 875 529 
Q 447 1150 447 2328 
Q 447 3434 972 4092 
Q 1497 4750 2381 4750 
Q 2619 4750 2861 4703 
Q 3103 4656 3366 4563 
z
" transform="scale(0.015625)"/>
       </defs>
       <use xlink:href="#DejaVuSans-30"/>
       <use xlink:href="#DejaVuSans-2e" x="63.623047"/>
       <use xlink:href="#DejaVuSans-36" x="95.410156"/>
      </g>
     </g>
    </g>
    <g id="xtick_5">
     <g id="line2d_9">
      <path d="M 468.654545 504 
L 468.654545 69.12 
" clip-path="url(#p85d6d7a2e1)" style="fill: none; stroke: #fdf6e3"/>
     </g>
     <g id="line2d_10">
      <g>
       <use xlink:href="#m8f50e3a8ce" x="468.654545" y="504" style="fill: #657b83; stroke: #657b83; stroke-width: 0.8"/>
      </g>
     </g>
     <g id="text_5">
      <!-- 0.8 -->
      <g style="fill: #657b83" transform="translate(460.702983 518.598438)scale(0.1 -0.1)">
       <defs>
        <path id="DejaVuSans-38" d="M 2034 2216 
Q 1584 2216 1326 1975 
Q 1069 1734 1069 1313 
Q 1069 891 1326 650 
Q 1584 409 2034 409 
Q 2484 409 2743 651 
Q 3003 894 3003 1313 
Q 3003 1734 2745 1975 
Q 2488 2216 2034 2216 
z
M 1403 2484 
Q 997 2584 770 2862 
Q 544 3141 544 3541 
Q 544 4100 942 4425 
Q 1341 4750 2034 4750 
Q 2731 4750 3128 4425 
Q 3525 4100 3525 3541 
Q 3525 3141 3298 2862 
Q 3072 2584 2669 2484 
Q 3125 2378 3379 2068 
Q 3634 1759 3634 1313 
Q 3634 634 3220 271 
Q 2806 -91 2034 -91 
Q 1263 -91 848 271 
Q 434 634 434 1313 
Q 434 1759 690 2068 
Q 947 2378 1403 2484 
z
M 1172 3481 
Q 1172 3119 1398 2916 
Q 1625 2713 2034 2713 
Q 2441 2713 2670 2916 
Q 2900 3119 2900 3481 
Q 2900 3844 2670 4047 
Q 2441 4250 2034 4250 
Q 1625 4250 1398 4047 
Q 1172 3844 1172 3481 
z
" transform="scale(0.015625)"/>
       </defs>
       <use xlink:href="#DejaVuSans-30"/>
       <use xlink:href="#DejaVuSans-2e" x="63.623047"/>
       <use xlink:href="#DejaVuSans-38" x="95.410156"/>
      </g>
     </g>
    </g>
    <g id="xtick_6">
     <g id="line2d_11">
      <path d="M 549.818182 504 
L 549.818182 69.12 
" clip-path="url(#p85d6d7a2e1)" style="fill: none; stroke: #fdf6e3"/>
     </g>
     <g id="line2d_12">
      <g>
       <use xlink:href="#m8f50e3a8ce" x="549.818182" y="504" style="fill: #657b83; stroke: #657b83; stroke-width: 0.8"/>
      </g>
     </g>
     <g id="text_6">
      <!-- 1.0 -->
      <g style="fill: #657b83" transform="translate(541.866619 518.598438)scale(0.1 -0.1)">
       <defs>
        <path id="DejaVuSans-31" d="M 794 531 
L 1825 531 
L 1825 4091 
L 703 3866 
L 703 4441 
L 1819 4666 
L 2450 4666 
L 2450 531 
L 3481 531 
L 3481 0 
L 794 0 
L 794 531 
z
" transform="scale(0.015625)"/>
       </defs>
       <use xlink:href="#DejaVuSans-31"/>
       <use xlink:href="#DejaVuSans-2e" x="63.623047"/>
       <use xlink:href="#DejaVuSans-30" x="95.410156"/>
      </g>
     </g>
    </g>
    <g id="text_7">
     <!-- Recall -->
     <g style="fill: #657b83" transform="translate(329.008466 533.79625)scale(0.12 -0.12)">
      <defs>
       <path id="DejaVuSans-52" d="M 2841 2188 
Q 3044 2119 3236 1894 
Q 3428 1669 3622 1275 
L 4263 0 
L 3584 0 
L 2988 1197 
Q 2756 1666 2539 1819 
Q 2322 1972 1947 1972 
L 1259 1972 
L 1259 0 
L 628 0 
L 628 4666 
L 2053 4666 
Q 2853 4666 3247 4331 
Q 3641 3997 3641 3322 
Q 3641 2881 3436 2590 
Q 3231 2300 2841 2188 
z
M 1259 4147 
L 1259 2491 
L 2053 2491 
Q 2509 2491 2742 2702 
Q 2975 2913 2975 3322 
Q 2975 3731 2742 3939 
Q 2509 4147 2053 4147 
L 1259 4147 
z
" transform="scale(0.015625)"/>
       <path id="DejaVuSans-65" d="M 3597 1894 
L 3597 1613 
L 953 1613 
Q 991 1019 1311 708 
Q 1631 397 2203 397 
Q 2534 397 2845 478 
Q 3156 559 3463 722 
L 3463 178 
Q 3153 47 2828 -22 
Q 2503 -91 2169 -91 
Q 1331 -91 842 396 
Q 353 884 353 1716 
Q 353 2575 817 3079 
Q 1281 3584 2069 3584 
Q 2775 3584 3186 3129 
Q 3597 2675 3597 1894 
z
M 3022 2063 
Q 3016 2534 2758 2815 
Q 2500 3097 2075 3097 
Q 1594 3097 1305 2825 
Q 1016 2553 972 2059 
L 3022 2063 
z
" transform="scale(0.015625)"/>
       <path id="DejaVuSans-63" d="M 3122 3366 
L 3122 2828 
Q 2878 2963 2633 3030 
Q 2388 3097 2138 3097 
Q 1578 3097 1268 2742 
Q 959 2388 959 1747 
Q 959 1106 1268 751 
Q 1578 397 2138 397 
Q 2388 397 2633 464 
Q 2878 531 3122 666 
L 3122 134 
Q 2881 22 2623 -34 
Q 2366 -91 2075 -91 
Q 1284 -91 818 406 
Q 353 903 353 1747 
Q 353 2603 823 3093 
Q 1294 3584 2113 3584 
Q 2378 3584 2631 3529 
Q 2884 3475 3122 3366 
z
" transform="scale(0.015625)"/>
       <path id="DejaVuSans-61" d="M 2194 1759 
Q 1497 1759 1228 1600 
Q 959 1441 959 1056 
Q 959 750 1161 570 
Q 1363 391 1709 391 
Q 2188 391 2477 730 
Q 2766 1069 2766 1631 
L 2766 1759 
L 2194 1759 
z
M 3341 1997 
L 3341 0 
L 2766 0 
L 2766 531 
Q 2569 213 2275 61 
Q 1981 -91 1556 -91 
Q 1019 -91 701 211 
Q 384 513 384 1019 
Q 384 1609 779 1909 
Q 1175 2209 1959 2209 
L 2766 2209 
L 2766 2266 
Q 2766 2663 2505 2880 
Q 2244 3097 1772 3097 
Q 1472 3097 1187 3025 
Q 903 2953 641 2809 
L 641 3341 
Q 956 3463 1253 3523 
Q 1550 3584 1831 3584 
Q 2591 3584 2966 3190 
Q 3341 2797 3341 1997 
z
" transform="scale(0.015625)"/>
       <path id="DejaVuSans-6c" d="M 603 4863 
L 1178 4863 
L 1178 0 
L 603 0 
L 603 4863 
z
" transform="scale(0.015625)"/>
      </defs>
      <use xlink:href="#DejaVuSans-52"/>
      <use xlink:href="#DejaVuSans-65" x="64.982422"/>
      <use xlink:href="#DejaVuSans-63" x="126.505859"/>
      <use xlink:href="#DejaVuSans-61" x="181.486328"/>
      <use xlink:href="#DejaVuSans-6c" x="242.765625"/>
      <use xlink:href="#DejaVuSans-6c" x="270.548828"/>
     </g>
    </g>
   </g>
   <g id="matplotlib.axis_2">
    <g id="ytick_1">
     <g id="line2d_13">
      <path d="M 144 504 
L 549.818182 504 
" clip-path="url(#p85d6d7a2e1)" style="fill: none; stroke: #fdf6e3"/>
     </g>
     <g id="line2d_14">
      <defs>
       <path id="mb7738120de" d="M 0 0 
L -3.5 0 
" style="stroke: #657b83; stroke-width: 0.8"/>
      </defs>
      <g>
       <use xlink:href="#mb7738120de" x="144" y="504" style="fill: #657b83; stroke: #657b83; stroke-width: 0.8"/>
      </g>
     </g>
     <g id="text_8">
      <!-- 0.0 -->
      <g style="fill: #657b83" transform="translate(121.096875 507.799219)scale(0.1 -0.1)">
       <use xlink:href="#DejaVuSans-30"/>
       <use xlink:href="#DejaVuSans-2e" x="63.623047"/>
       <use xlink:href="#DejaVuSans-30" x="95.410156"/>
      </g>
     </g>
    </g>
    <g id="ytick_2">
     <g id="line2d_15">
      <path d="M 144 417.024 
L 549.818182 417.024 
" clip-path="url(#p85d6d7a2e1)" style="fill: none; stroke: #fdf6e3"/>
     </g>
     <g id="line2d_16">
      <g>
       <use xlink:href="#mb7738120de" x="144" y="417.024" style="fill: #657b83; stroke: #657b83; stroke-width: 0.8"/>
      </g>
     </g>
     <g id="text_9">
      <!-- 0.2 -->
      <g style="fill: #657b83" transform="translate(121.096875 420.823219)scale(0.1 -0.1)">
       <use xlink:href="#DejaVuSans-30"/>
       <use xlink:href="#DejaVuSans-2e" x="63.623047"/>
       <use xlink:href="#DejaVuSans-32" x="95.410156"/>
      </g>
     </g>
    </g>
    <g id="ytick_3">
     <g id="line2d_17">
      <path d="M 144 330.048 
L 549.818182 330.048 
" clip-path="url(#p85d6d7a2e1)" style="fill: none; stroke: #fdf6e3"/>
     </g>
     <g id="line2d_18">
      <g>
       <use xlink:href="#mb7738120de" x="144" y="330.048" style="fill: #657b83; stroke: #657b83; stroke-width: 0.8"/>
      </g>
     </g>
     <g id="text_10">
      <!-- 0.4 -->
      <g style="fill: #657b83" transform="translate(121.096875 333.847219)scale(0.1 -0.1)">
       <use xlink:href="#DejaVuSans-30"/>
       <use xlink:href="#DejaVuSans-2e" x="63.623047"/>
       <use xlink:href="#DejaVuSans-34" x="95.410156"/>
      </g>
     </g>
    </g>
    <g id="ytick_4">
     <g id="line2d_19">
      <path d="M 144 243.072 
L 549.818182 243.072 
" clip-path="url(#p85d6d7a2e1)" style="fill: none; stroke: #fdf6e3"/>
     </g>
     <g id="line2d_20">
      <g>
       <use xlink:href="#mb7738120de" x="144" y="243.072" style="fill: #657b83; stroke: #657b83; stroke-width: 0.8"/>
      </g>
     </g>
     <g id="text_11">
      <!-- 0.6 -->
      <g style="fill: #657b83" transform="translate(121.096875 246.871219)scale(0.1 -0.1)">
       <use xlink:href="#DejaVuSans-30"/>
       <use xlink:href="#DejaVuSans-2e" x="63.623047"/>
       <use xlink:href="#DejaVuSans-36" x="95.410156"/>
      </g>
     </g>
    </g>
    <g id="ytick_5">
     <g id="line2d_21">
      <path d="M 144 156.096 
L 549.818182 156.096 
" clip-path="url(#p85d6d7a2e1)" style="fill: none; stroke: #fdf6e3"/>
     </g>
     <g id="line2d_22">
      <g>
       <use xlink:href="#mb7738120de" x="144" y="156.096" style="fill: #657b83; stroke: #657b83; stroke-width: 0.8"/>
      </g>
     </g>
     <g id="text_12">
      <!-- 0.8 -->
      <g style="fill: #657b83" transform="translate(121.096875 159.895219)scale(0.1 -0.1)">
       <use xlink:href="#DejaVuSans-30"/>
       <use xlink:href="#DejaVuSans-2e" x="63.623047"/>
       <use xlink:href="#DejaVuSans-38" x="95.410156"/>
      </g>
     </g>
    </g>
    <g id="ytick_6">
     <g id="line2d_23">
      <path d="M 144 69.12 
L 549.818182 69.12 
" clip-path="url(#p85d6d7a2e1)" style="fill: none; stroke: #fdf6e3"/>
     </g>
     <g id="line2d_24">
      <g>
       <use xlink:href="#mb7738120de" x="144" y="69.12" style="fill: #657b83; stroke: #657b83; stroke-width: 0.8"/>
      </g>
     </g>
     <g id="text_13">
      <!-- 1.0 -->
      <g style="fill: #657b83" transform="translate(121.096875 72.919219)scale(0.1 -0.1)">
       <use xlink:href="#DejaVuSans-31"/>
       <use xlink:href="#DejaVuSans-2e" x="63.623047"/>
       <use xlink:href="#DejaVuSans-30" x="95.410156"/>
      </g>
     </g>
    </g>
    <g id="text_14">
     <!-- Precision -->
     <g style="fill: #657b83" transform="translate(114.60125 313.328438)rotate(-90)scale(0.12 -0.12)">
      <defs>
       <path id="DejaVuSans-50" d="M 1259 4147 
L 1259 2394 
L 2053 2394 
Q 2494 2394 2734 2622 
Q 2975 2850 2975 3272 
Q 2975 3691 2734 3919 
Q 2494 4147 2053 4147 
L 1259 4147 
z
M 628 4666 
L 2053 4666 
Q 2838 4666 3239 4311 
Q 3641 3956 3641 3272 
Q 3641 2581 3239 2228 
Q 2838 1875 2053 1875 
L 1259 1875 
L 1259 0 
L 628 0 
L 628 4666 
z
" transform="scale(0.015625)"/>
       <path id="DejaVuSans-72" d="M 2631 2963 
Q 2534 3019 2420 3045 
Q 2306 3072 2169 3072 
Q 1681 3072 1420 2755 
Q 1159 2438 1159 1844 
L 1159 0 
L 581 0 
L 581 3500 
L 1159 3500 
L 1159 2956 
Q 1341 3275 1631 3429 
Q 1922 3584 2338 3584 
Q 2397 3584 2469 3576 
Q 2541 3569 2628 3553 
L 2631 2963 
z
" transform="scale(0.015625)"/>
       <path id="DejaVuSans-69" d="M 603 3500 
L 1178 3500 
L 1178 0 
L 603 0 
L 603 3500 
z
M 603 4863 
L 1178 4863 
L 1178 4134 
L 603 4134 
L 603 4863 
z
" transform="scale(0.015625)"/>
       <path id="DejaVuSans-73" d="M 2834 3397 
L 2834 2853 
Q 2591 2978 2328 3040 
Q 2066 3103 1784 3103 
Q 1356 3103 1142 2972 
Q 928 2841 928 2578 
Q 928 2378 1081 2264 
Q 1234 2150 1697 2047 
L 1894 2003 
Q 2506 1872 2764 1633 
Q 3022 1394 3022 966 
Q 3022 478 2636 193 
Q 2250 -91 1575 -91 
Q 1294 -91 989 -36 
Q 684 19 347 128 
L 347 722 
Q 666 556 975 473 
Q 1284 391 1588 391 
Q 1994 391 2212 530 
Q 2431 669 2431 922 
Q 2431 1156 2273 1281 
Q 2116 1406 1581 1522 
L 1381 1569 
Q 847 1681 609 1914 
Q 372 2147 372 2553 
Q 372 3047 722 3315 
Q 1072 3584 1716 3584 
Q 2034 3584 2315 3537 
Q 2597 3491 2834 3397 
z
" transform="scale(0.015625)"/>
       <path id="DejaVuSans-6f" d="M 1959 3097 
Q 1497 3097 1228 2736 
Q 959 2375 959 1747 
Q 959 1119 1226 758 
Q 1494 397 1959 397 
Q 2419 397 2687 759 
Q 2956 1122 2956 1747 
Q 2956 2369 2687 2733 
Q 2419 3097 1959 3097 
z
M 1959 3584 
Q 2709 3584 3137 3096 
Q 3566 2609 3566 1747 
Q 3566 888 3137 398 
Q 2709 -91 1959 -91 
Q 1206 -91 779 398 
Q 353 888 353 1747 
Q 353 2609 779 3096 
Q 1206 3584 1959 3584 
z
" transform="scale(0.015625)"/>
       <path id="DejaVuSans-6e" d="M 3513 2113 
L 3513 0 
L 2938 0 
L 2938 2094 
Q 2938 2591 2744 2837 
Q 2550 3084 2163 3084 
Q 1697 3084 1428 2787 
Q 1159 2491 1159 1978 
L 1159 0 
L 581 0 
L 581 3500 
L 1159 3500 
L 1159 2956 
Q 1366 3272 1645 3428 
Q 1925 3584 2291 3584 
Q 2894 3584 3203 3211 
Q 3513 2838 3513 2113 
z
" transform="scale(0.015625)"/>
      </defs>
      <use xlink:href="#DejaVuSans-50"/>
      <use xlink:href="#DejaVuSans-72" x="58.552734"/>
      <use xlink:href="#DejaVuSans-65" x="97.416016"/>
      <use xlink:href="#DejaVuSans-63" x="158.939453"/>
      <use xlink:href="#DejaVuSans-69" x="213.919922"/>
      <use xlink:href="#DejaVuSans-73" x="241.703125"/>
      <use xlink:href="#DejaVuSans-69" x="293.802734"/>
      <use xlink:href="#DejaVuSans-6f" x="321.585938"/>
      <use xlink:href="#DejaVuSans-6e" x="382.767578"/>
     </g>
    </g>
   </g>
   <g id="patch_3">
    <path d="M 550.012356 387.281736 
L 550.080542 370.414335 
L 549.827436 377.691989 
L 550.208759 400.180225 
L 550.296222 375.202635 
L 549.301525 395.104152 
L 548.027063 391.918245 
L 546.764001 408.752977 
L 542.920932 381.576854 
L 535.0524 391.997444 
L 520.468152 367.018582 
L 507.911771 370.009708 
L 483.796914 333.031946 
L 435.174555 271.982033 
L 369.557448 177.410688 
L 294.398517 84.188597 
L 229.6018 67.110827 
L 166.463082 55.260114 
L 148.001245 69.12 
L 144 69.12 
L 144 69.12 
L 143.355023 69.12 
L 148.649498 93.851886 
L 185.524453 78.576653 
L 257.126174 119.530115 
L 334.007849 247.458233 
L 403.297644 354.564788 
L 454.396282 402.193582 
L 485.193448 420.724042 
L 510.199235 419.425271 
L 518.876112 436.866522 
L 527.822472 445.103828 
L 534.845781 452.16515 
L 542.542835 451.244889 
L 544.562801 440.88196 
L 547.040774 432.496545 
L 546.868898 431.9557 
L 546.747713 447.053361 
L 549.056422 439.672286 
L 549.50839 437.070898 
z
" clip-path="url(#p85d6d7a2e1)" style="fill: #006ba4; opacity: 0.2; stroke: #006ba4; stroke-linejoin: miter"/>
   </g>
   <g id="patch_4">
    <path d="M 550.298467 386.500297 
L 550.094577 389.102495 
L 549.940461 386.602433 
L 548.9951 380.161014 
L 546.727729 385.121229 
L 545.449785 374.497486 
L 541.346898 386.989173 
L 532.63529 370.226944 
L 518.956811 356.562161 
L 500.003259 353.419549 
L 465.942221 331.111234 
L 418.197526 233.550123 
L 345.74524 116.892363 
L 244.556781 67.067392 
L 175.680935 69.12 
L 146.687754 69.12 
L 144 69.12 
L 144 69.12 
L 144 69.12 
L 144 69.12 
L 144 69.12 
L 144 69.12 
L 144 69.12 
L 144 69.12 
L 142.912042 69.12 
L 159.489962 69.12 
L 225.938293 76.477267 
L 313.656183 159.971391 
L 388.210267 308.076615 
L 439.460072 400.503931 
L 481.392842 435.523136 
L 502.291513 428.075814 
L 521.327279 423.666119 
L 528.915437 436.988594 
L 537.741311 442.279219 
L 542.449869 435.059234 
L 545.735512 437.352976 
L 547.492155 441.555647 
L 548.164117 437.739478 
L 548.688143 443.815685 
z
" clip-path="url(#p85d6d7a2e1)" style="fill: #595959; opacity: 0.2; stroke: #595959; stroke-linejoin: miter"/>
   </g>
   <g id="line2d_25">
    <path d="M 549.760373 412.176317 
L 549.568482 405.043311 
L 548.287575 412.372675 
L 548.538828 416.067963 
L 548.668498 403.84959 
L 546.932163 417.993056 
L 545.284949 421.581567 
L 540.804891 430.459063 
L 535.371702 413.340341 
L 526.964256 414.431983 
L 515.333693 393.221927 
L 496.552609 395.366875 
L 469.096598 367.612764 
L 419.2361 313.27341 
L 351.782648 212.43446 
L 275.762346 101.859356 
L 207.563127 72.84374 
L 157.55629 74.556 
L 145.678134 69.12 
L 144 69.12 
" clip-path="url(#p85d6d7a2e1)" style="fill: none; stroke: #006ba4; stroke-width: 2"/>
   </g>
   <g id="line2d_26">
    <path d="M 548.834453 419.379712 
L 548.830997 429.229344 
L 547.617623 405.668151 
L 545.774244 412.812753 
L 543.679549 403.251327 
L 540.597685 413.679813 
L 534.756461 404.98382 
L 525.706541 408.273076 
L 511.826877 383.330017 
L 490.892662 388.959897 
L 456.744728 349.413644 
L 398.699162 267.435436 
L 330.846442 150.323717 
L 235.204197 75.160967 
L 165.848281 69.12 
L 145.081585 69.12 
L 144 69.12 
L 144 69.12 
L 144 69.12 
L 144 69.12 
" clip-path="url(#p85d6d7a2e1)" style="fill: none; stroke: #ff800e; stroke-width: 2"/>
   </g>
   <g id="line2d_27">
    <path d="M 473.471359 386.037128 
L 458.757198 360.883324 
L 437.105624 341.697387 
L 407.362456 288.095662 
L 376.255177 243.469879 
L 332.188316 175.037787 
L 286.573297 98.681549 
L 240.578744 73.440537 
L 196.523443 69.12 
L 167.566583 69.12 
L 149.653694 69.12 
L 144.84402 69.12 
L 144.267858 69.12 
L 144 69.12 
L 144 69.12 
L 144 69.12 
L 144 69.12 
L 144 69.12 
L 144 69.12 
L 144 69.12 
" clip-path="url(#p85d6d7a2e1)" style="fill: none; stroke: #ababab; stroke-width: 2"/>
   </g>
   <g id="line2d_28">
    <path d="M 549.493305 415.157991 
L 549.129347 413.420986 
L 548.716308 414.07904 
L 547.365306 408.756995 
L 544.588799 410.090232 
L 541.595548 408.388352 
L 535.131167 411.988883 
L 526.981284 396.946532 
L 510.624162 392.318988 
L 490.698051 394.471343 
L 452.701147 365.807582 
L 403.203897 270.813369 
L 329.700712 138.431877 
L 235.247537 71.77233 
L 167.585448 69.12 
L 144.799898 69.12 
L 144 69.12 
L 144 69.12 
L 144 69.12 
L 144 69.12 
" clip-path="url(#p85d6d7a2e1)" style="fill: none; stroke: #595959; stroke-width: 2"/>
   </g>
   <g id="line2d_29">
    <path d="M 145.421297 69.12 
L 242.912595 76.412178 
L 319.115413 130.177152 
L 370.833695 215.150545 
L 386.681449 240.984576 
L 412.731699 269.860608 
L 423.305096 313.52256 
L 438.815893 312.210034 
L 445.053414 333.74448 
L 466.459612 360.708799 
L 473.666472 350.748288 
L 477.823978 387.424693 
L 490.023928 372.782208 
L 499.264356 401.757733 
L 508.155394 395.777006 
L 510.67612 399.38094 
L 520.52689 402.716448 
L 531.02258 393.299377 
L 539.004474 418.048384 
L 544.598733 427.928044 
" clip-path="url(#p85d6d7a2e1)" style="fill: none; stroke: #5f9ed1; stroke-width: 2"/>
   </g>
   <g id="patch_5">
    <path d="M 144 504 
L 144 69.12 
" style="fill: none; stroke: #eee8d5; stroke-width: 0.8; stroke-linejoin: miter; stroke-linecap: square"/>
   </g>
   <g id="patch_6">
    <path d="M 549.818182 504 
L 549.818182 69.12 
" style="fill: none; stroke: #eee8d5; stroke-width: 0.8; stroke-linejoin: miter; stroke-linecap: square"/>
   </g>
   <g id="patch_7">
    <path d="M 144 504 
L 549.818182 504 
" style="fill: none; stroke: #eee8d5; stroke-width: 0.8; stroke-linejoin: miter; stroke-linecap: square"/>
   </g>
   <g id="patch_8">
    <path d="M 144 69.12 
L 549.818182 69.12 
" style="fill: none; stroke: #eee8d5; stroke-width: 0.8; stroke-linejoin: miter; stroke-linecap: square"/>
   </g>
   <g id="text_15">
    <!-- Axis 1 -->
    <g transform="translate(322.679091 63.12)scale(0.16 -0.16)">
     <defs>
      <path id="DejaVuSans-41" d="M 2188 4044 
L 1331 1722 
L 3047 1722 
L 2188 4044 
z
M 1831 4666 
L 2547 4666 
L 4325 0 
L 3669 0 
L 3244 1197 
L 1141 1197 
L 716 0 
L 50 0 
L 1831 4666 
z
" transform="scale(0.015625)"/>
      <path id="DejaVuSans-78" d="M 3513 3500 
L 2247 1797 
L 3578 0 
L 2900 0 
L 1881 1375 
L 863 0 
L 184 0 
L 1544 1831 
L 300 3500 
L 978 3500 
L 1906 2253 
L 2834 3500 
L 3513 3500 
z
" transform="scale(0.015625)"/>
      <path id="DejaVuSans-20" transform="scale(0.015625)"/>
     </defs>
     <use xlink:href="#DejaVuSans-41"/>
     <use xlink:href="#DejaVuSans-78" x="68.408203"/>
     <use xlink:href="#DejaVuSans-69" x="127.587891"/>
     <use xlink:href="#DejaVuSans-73" x="155.371094"/>
     <use xlink:href="#DejaVuSans-20" x="207.470703"/>
     <use xlink:href="#DejaVuSans-31" x="239.257812"/>
    </g>
   </g>
   <g id="legend_1">
    <g id="patch_9">
     <path d="M 410.322869 150.78875 
L 542.818182 150.78875 
Q 544.818182 150.78875 544.818182 148.78875 
L 544.818182 76.12 
Q 544.818182 74.12 542.818182 74.12 
L 410.322869 74.12 
Q 408.322869 74.12 408.322869 76.12 
L 408.322869 148.78875 
Q 408.322869 150.78875 410.322869 150.78875 
z
" style="fill: #eee8d5; opacity: 0.8; stroke: #cccccc; stroke-linejoin: miter"/>
    </g>
    <g id="line2d_30">
     <path d="M 412.322869 82.218437 
L 422.322869 82.218437 
L 432.322869 82.218437 
" style="fill: none; stroke: #006ba4; stroke-width: 2"/>
    </g>
    <g id="text_16">
     <!-- antGLasso -->
     <g transform="translate(440.322869 85.718437)scale(0.1 -0.1)">
      <defs>
       <path id="DejaVuSans-74" d="M 1172 4494 
L 1172 3500 
L 2356 3500 
L 2356 3053 
L 1172 3053 
L 1172 1153 
Q 1172 725 1289 603 
Q 1406 481 1766 481 
L 2356 481 
L 2356 0 
L 1766 0 
Q 1100 0 847 248 
Q 594 497 594 1153 
L 594 3053 
L 172 3053 
L 172 3500 
L 594 3500 
L 594 4494 
L 1172 4494 
z
" transform="scale(0.015625)"/>
       <path id="DejaVuSans-47" d="M 3809 666 
L 3809 1919 
L 2778 1919 
L 2778 2438 
L 4434 2438 
L 4434 434 
Q 4069 175 3628 42 
Q 3188 -91 2688 -91 
Q 1594 -91 976 548 
Q 359 1188 359 2328 
Q 359 3472 976 4111 
Q 1594 4750 2688 4750 
Q 3144 4750 3555 4637 
Q 3966 4525 4313 4306 
L 4313 3634 
Q 3963 3931 3569 4081 
Q 3175 4231 2741 4231 
Q 1884 4231 1454 3753 
Q 1025 3275 1025 2328 
Q 1025 1384 1454 906 
Q 1884 428 2741 428 
Q 3075 428 3337 486 
Q 3600 544 3809 666 
z
" transform="scale(0.015625)"/>
       <path id="DejaVuSans-4c" d="M 628 4666 
L 1259 4666 
L 1259 531 
L 3531 531 
L 3531 0 
L 628 0 
L 628 4666 
z
" transform="scale(0.015625)"/>
      </defs>
      <use xlink:href="#DejaVuSans-61"/>
      <use xlink:href="#DejaVuSans-6e" x="61.279297"/>
      <use xlink:href="#DejaVuSans-74" x="124.658203"/>
      <use xlink:href="#DejaVuSans-47" x="163.867188"/>
      <use xlink:href="#DejaVuSans-4c" x="241.357422"/>
      <use xlink:href="#DejaVuSans-61" x="297.070312"/>
      <use xlink:href="#DejaVuSans-73" x="358.349609"/>
      <use xlink:href="#DejaVuSans-73" x="410.449219"/>
      <use xlink:href="#DejaVuSans-6f" x="462.548828"/>
     </g>
    </g>
    <g id="line2d_31">
     <path d="M 412.322869 96.896563 
L 422.322869 96.896563 
L 432.322869 96.896563 
" style="fill: none; stroke: #ff800e; stroke-width: 2"/>
    </g>
    <g id="text_17">
     <!-- TeraLasso -->
     <g transform="translate(440.322869 100.396563)scale(0.1 -0.1)">
      <defs>
       <path id="DejaVuSans-54" d="M -19 4666 
L 3928 4666 
L 3928 4134 
L 2272 4134 
L 2272 0 
L 1638 0 
L 1638 4134 
L -19 4134 
L -19 4666 
z
" transform="scale(0.015625)"/>
      </defs>
      <use xlink:href="#DejaVuSans-54"/>
      <use xlink:href="#DejaVuSans-65" x="44.083984"/>
      <use xlink:href="#DejaVuSans-72" x="105.607422"/>
      <use xlink:href="#DejaVuSans-61" x="146.720703"/>
      <use xlink:href="#DejaVuSans-4c" x="208"/>
      <use xlink:href="#DejaVuSans-61" x="263.712891"/>
      <use xlink:href="#DejaVuSans-73" x="324.992188"/>
      <use xlink:href="#DejaVuSans-73" x="377.091797"/>
      <use xlink:href="#DejaVuSans-6f" x="429.191406"/>
     </g>
    </g>
    <g id="line2d_32">
     <path d="M 412.322869 111.574687 
L 422.322869 111.574687 
L 432.322869 111.574687 
" style="fill: none; stroke: #ababab; stroke-width: 2"/>
    </g>
    <g id="text_18">
     <!-- scBiGLasso -->
     <g transform="translate(440.322869 115.074687)scale(0.1 -0.1)">
      <defs>
       <path id="DejaVuSans-42" d="M 1259 2228 
L 1259 519 
L 2272 519 
Q 2781 519 3026 730 
Q 3272 941 3272 1375 
Q 3272 1813 3026 2020 
Q 2781 2228 2272 2228 
L 1259 2228 
z
M 1259 4147 
L 1259 2741 
L 2194 2741 
Q 2656 2741 2882 2914 
Q 3109 3088 3109 3444 
Q 3109 3797 2882 3972 
Q 2656 4147 2194 4147 
L 1259 4147 
z
M 628 4666 
L 2241 4666 
Q 2963 4666 3353 4366 
Q 3744 4066 3744 3513 
Q 3744 3084 3544 2831 
Q 3344 2578 2956 2516 
Q 3422 2416 3680 2098 
Q 3938 1781 3938 1306 
Q 3938 681 3513 340 
Q 3088 0 2303 0 
L 628 0 
L 628 4666 
z
" transform="scale(0.015625)"/>
      </defs>
      <use xlink:href="#DejaVuSans-73"/>
      <use xlink:href="#DejaVuSans-63" x="52.099609"/>
      <use xlink:href="#DejaVuSans-42" x="107.080078"/>
      <use xlink:href="#DejaVuSans-69" x="175.683594"/>
      <use xlink:href="#DejaVuSans-47" x="203.466797"/>
      <use xlink:href="#DejaVuSans-4c" x="280.957031"/>
      <use xlink:href="#DejaVuSans-61" x="336.669922"/>
      <use xlink:href="#DejaVuSans-73" x="397.949219"/>
      <use xlink:href="#DejaVuSans-73" x="450.048828"/>
      <use xlink:href="#DejaVuSans-6f" x="502.148438"/>
     </g>
    </g>
    <g id="line2d_33">
     <path d="M 412.322869 126.252813 
L 422.322869 126.252813 
L 432.322869 126.252813 
" style="fill: none; stroke: #595959; stroke-width: 2"/>
    </g>
    <g id="text_19">
     <!-- EiGLasso -->
     <g transform="translate(440.322869 129.752813)scale(0.1 -0.1)">
      <defs>
       <path id="DejaVuSans-45" d="M 628 4666 
L 3578 4666 
L 3578 4134 
L 1259 4134 
L 1259 2753 
L 3481 2753 
L 3481 2222 
L 1259 2222 
L 1259 531 
L 3634 531 
L 3634 0 
L 628 0 
L 628 4666 
z
" transform="scale(0.015625)"/>
      </defs>
      <use xlink:href="#DejaVuSans-45"/>
      <use xlink:href="#DejaVuSans-69" x="63.183594"/>
      <use xlink:href="#DejaVuSans-47" x="90.966797"/>
      <use xlink:href="#DejaVuSans-4c" x="168.457031"/>
      <use xlink:href="#DejaVuSans-61" x="224.169922"/>
      <use xlink:href="#DejaVuSans-73" x="285.449219"/>
      <use xlink:href="#DejaVuSans-73" x="337.548828"/>
      <use xlink:href="#DejaVuSans-6f" x="389.648438"/>
     </g>
    </g>
    <g id="line2d_34">
     <path d="M 412.322869 140.930938 
L 422.322869 140.930938 
L 432.322869 140.930938 
" style="fill: none; stroke: #5f9ed1; stroke-width: 2"/>
    </g>
    <g id="text_20">
     <!-- antGLasso_heuristic -->
     <g transform="translate(440.322869 144.430938)scale(0.1 -0.1)">
      <defs>
       <path id="DejaVuSans-5f" d="M 3263 -1063 
L 3263 -1509 
L -63 -1509 
L -63 -1063 
L 3263 -1063 
z
" transform="scale(0.015625)"/>
       <path id="DejaVuSans-68" d="M 3513 2113 
L 3513 0 
L 2938 0 
L 2938 2094 
Q 2938 2591 2744 2837 
Q 2550 3084 2163 3084 
Q 1697 3084 1428 2787 
Q 1159 2491 1159 1978 
L 1159 0 
L 581 0 
L 581 4863 
L 1159 4863 
L 1159 2956 
Q 1366 3272 1645 3428 
Q 1925 3584 2291 3584 
Q 2894 3584 3203 3211 
Q 3513 2838 3513 2113 
z
" transform="scale(0.015625)"/>
       <path id="DejaVuSans-75" d="M 544 1381 
L 544 3500 
L 1119 3500 
L 1119 1403 
Q 1119 906 1312 657 
Q 1506 409 1894 409 
Q 2359 409 2629 706 
Q 2900 1003 2900 1516 
L 2900 3500 
L 3475 3500 
L 3475 0 
L 2900 0 
L 2900 538 
Q 2691 219 2414 64 
Q 2138 -91 1772 -91 
Q 1169 -91 856 284 
Q 544 659 544 1381 
z
M 1991 3584 
L 1991 3584 
z
" transform="scale(0.015625)"/>
      </defs>
      <use xlink:href="#DejaVuSans-61"/>
      <use xlink:href="#DejaVuSans-6e" x="61.279297"/>
      <use xlink:href="#DejaVuSans-74" x="124.658203"/>
      <use xlink:href="#DejaVuSans-47" x="163.867188"/>
      <use xlink:href="#DejaVuSans-4c" x="241.357422"/>
      <use xlink:href="#DejaVuSans-61" x="297.070312"/>
      <use xlink:href="#DejaVuSans-73" x="358.349609"/>
      <use xlink:href="#DejaVuSans-73" x="410.449219"/>
      <use xlink:href="#DejaVuSans-6f" x="462.548828"/>
      <use xlink:href="#DejaVuSans-5f" x="523.730469"/>
      <use xlink:href="#DejaVuSans-68" x="573.730469"/>
      <use xlink:href="#DejaVuSans-65" x="637.109375"/>
      <use xlink:href="#DejaVuSans-75" x="698.632812"/>
      <use xlink:href="#DejaVuSans-72" x="762.011719"/>
      <use xlink:href="#DejaVuSans-69" x="803.125"/>
      <use xlink:href="#DejaVuSans-73" x="830.908203"/>
      <use xlink:href="#DejaVuSans-74" x="883.007812"/>
      <use xlink:href="#DejaVuSans-69" x="922.216797"/>
      <use xlink:href="#DejaVuSans-63" x="950"/>
     </g>
    </g>
   </g>
  </g>
  <g id="axes_2">
   <g id="patch_10">
    <path d="M 630.981818 504 
L 1036.8 504 
L 1036.8 69.12 
L 630.981818 69.12 
z
" style="fill: #eee8d5"/>
   </g>
   <g id="matplotlib.axis_3">
    <g id="xtick_7">
     <g id="line2d_35">
      <path d="M 630.981818 504 
L 630.981818 69.12 
" clip-path="url(#pa55d943102)" style="fill: none; stroke: #fdf6e3"/>
     </g>
     <g id="line2d_36">
      <g>
       <use xlink:href="#m8f50e3a8ce" x="630.981818" y="504" style="fill: #657b83; stroke: #657b83; stroke-width: 0.8"/>
      </g>
     </g>
     <g id="text_21">
      <!-- 0.0 -->
      <g style="fill: #657b83" transform="translate(623.030256 518.598438)scale(0.1 -0.1)">
       <use xlink:href="#DejaVuSans-30"/>
       <use xlink:href="#DejaVuSans-2e" x="63.623047"/>
       <use xlink:href="#DejaVuSans-30" x="95.410156"/>
      </g>
     </g>
    </g>
    <g id="xtick_8">
     <g id="line2d_37">
      <path d="M 712.145455 504 
L 712.145455 69.12 
" clip-path="url(#pa55d943102)" style="fill: none; stroke: #fdf6e3"/>
     </g>
     <g id="line2d_38">
      <g>
       <use xlink:href="#m8f50e3a8ce" x="712.145455" y="504" style="fill: #657b83; stroke: #657b83; stroke-width: 0.8"/>
      </g>
     </g>
     <g id="text_22">
      <!-- 0.2 -->
      <g style="fill: #657b83" transform="translate(704.193892 518.598438)scale(0.1 -0.1)">
       <use xlink:href="#DejaVuSans-30"/>
       <use xlink:href="#DejaVuSans-2e" x="63.623047"/>
       <use xlink:href="#DejaVuSans-32" x="95.410156"/>
      </g>
     </g>
    </g>
    <g id="xtick_9">
     <g id="line2d_39">
      <path d="M 793.309091 504 
L 793.309091 69.12 
" clip-path="url(#pa55d943102)" style="fill: none; stroke: #fdf6e3"/>
     </g>
     <g id="line2d_40">
      <g>
       <use xlink:href="#m8f50e3a8ce" x="793.309091" y="504" style="fill: #657b83; stroke: #657b83; stroke-width: 0.8"/>
      </g>
     </g>
     <g id="text_23">
      <!-- 0.4 -->
      <g style="fill: #657b83" transform="translate(785.357528 518.598438)scale(0.1 -0.1)">
       <use xlink:href="#DejaVuSans-30"/>
       <use xlink:href="#DejaVuSans-2e" x="63.623047"/>
       <use xlink:href="#DejaVuSans-34" x="95.410156"/>
      </g>
     </g>
    </g>
    <g id="xtick_10">
     <g id="line2d_41">
      <path d="M 874.472727 504 
L 874.472727 69.12 
" clip-path="url(#pa55d943102)" style="fill: none; stroke: #fdf6e3"/>
     </g>
     <g id="line2d_42">
      <g>
       <use xlink:href="#m8f50e3a8ce" x="874.472727" y="504" style="fill: #657b83; stroke: #657b83; stroke-width: 0.8"/>
      </g>
     </g>
     <g id="text_24">
      <!-- 0.6 -->
      <g style="fill: #657b83" transform="translate(866.521165 518.598438)scale(0.1 -0.1)">
       <use xlink:href="#DejaVuSans-30"/>
       <use xlink:href="#DejaVuSans-2e" x="63.623047"/>
       <use xlink:href="#DejaVuSans-36" x="95.410156"/>
      </g>
     </g>
    </g>
    <g id="xtick_11">
     <g id="line2d_43">
      <path d="M 955.636364 504 
L 955.636364 69.12 
" clip-path="url(#pa55d943102)" style="fill: none; stroke: #fdf6e3"/>
     </g>
     <g id="line2d_44">
      <g>
       <use xlink:href="#m8f50e3a8ce" x="955.636364" y="504" style="fill: #657b83; stroke: #657b83; stroke-width: 0.8"/>
      </g>
     </g>
     <g id="text_25">
      <!-- 0.8 -->
      <g style="fill: #657b83" transform="translate(947.684801 518.598438)scale(0.1 -0.1)">
       <use xlink:href="#DejaVuSans-30"/>
       <use xlink:href="#DejaVuSans-2e" x="63.623047"/>
       <use xlink:href="#DejaVuSans-38" x="95.410156"/>
      </g>
     </g>
    </g>
    <g id="xtick_12">
     <g id="line2d_45">
      <path d="M 1036.8 504 
L 1036.8 69.12 
" clip-path="url(#pa55d943102)" style="fill: none; stroke: #fdf6e3"/>
     </g>
     <g id="line2d_46">
      <g>
       <use xlink:href="#m8f50e3a8ce" x="1036.8" y="504" style="fill: #657b83; stroke: #657b83; stroke-width: 0.8"/>
      </g>
     </g>
     <g id="text_26">
      <!-- 1.0 -->
      <g style="fill: #657b83" transform="translate(1028.848438 518.598438)scale(0.1 -0.1)">
       <use xlink:href="#DejaVuSans-31"/>
       <use xlink:href="#DejaVuSans-2e" x="63.623047"/>
       <use xlink:href="#DejaVuSans-30" x="95.410156"/>
      </g>
     </g>
    </g>
    <g id="text_27">
     <!-- Recall -->
     <g style="fill: #657b83" transform="translate(815.990284 533.79625)scale(0.12 -0.12)">
      <use xlink:href="#DejaVuSans-52"/>
      <use xlink:href="#DejaVuSans-65" x="64.982422"/>
      <use xlink:href="#DejaVuSans-63" x="126.505859"/>
      <use xlink:href="#DejaVuSans-61" x="181.486328"/>
      <use xlink:href="#DejaVuSans-6c" x="242.765625"/>
      <use xlink:href="#DejaVuSans-6c" x="270.548828"/>
     </g>
    </g>
   </g>
   <g id="matplotlib.axis_4">
    <g id="ytick_7">
     <g id="line2d_47">
      <path d="M 630.981818 504 
L 1036.8 504 
" clip-path="url(#pa55d943102)" style="fill: none; stroke: #fdf6e3"/>
     </g>
     <g id="line2d_48">
      <g>
       <use xlink:href="#mb7738120de" x="630.981818" y="504" style="fill: #657b83; stroke: #657b83; stroke-width: 0.8"/>
      </g>
     </g>
     <g id="text_28">
      <!-- 0.0 -->
      <g style="fill: #657b83" transform="translate(608.078693 507.799219)scale(0.1 -0.1)">
       <use xlink:href="#DejaVuSans-30"/>
       <use xlink:href="#DejaVuSans-2e" x="63.623047"/>
       <use xlink:href="#DejaVuSans-30" x="95.410156"/>
      </g>
     </g>
    </g>
    <g id="ytick_8">
     <g id="line2d_49">
      <path d="M 630.981818 417.024 
L 1036.8 417.024 
" clip-path="url(#pa55d943102)" style="fill: none; stroke: #fdf6e3"/>
     </g>
     <g id="line2d_50">
      <g>
       <use xlink:href="#mb7738120de" x="630.981818" y="417.024" style="fill: #657b83; stroke: #657b83; stroke-width: 0.8"/>
      </g>
     </g>
     <g id="text_29">
      <!-- 0.2 -->
      <g style="fill: #657b83" transform="translate(608.078693 420.823219)scale(0.1 -0.1)">
       <use xlink:href="#DejaVuSans-30"/>
       <use xlink:href="#DejaVuSans-2e" x="63.623047"/>
       <use xlink:href="#DejaVuSans-32" x="95.410156"/>
      </g>
     </g>
    </g>
    <g id="ytick_9">
     <g id="line2d_51">
      <path d="M 630.981818 330.048 
L 1036.8 330.048 
" clip-path="url(#pa55d943102)" style="fill: none; stroke: #fdf6e3"/>
     </g>
     <g id="line2d_52">
      <g>
       <use xlink:href="#mb7738120de" x="630.981818" y="330.048" style="fill: #657b83; stroke: #657b83; stroke-width: 0.8"/>
      </g>
     </g>
     <g id="text_30">
      <!-- 0.4 -->
      <g style="fill: #657b83" transform="translate(608.078693 333.847219)scale(0.1 -0.1)">
       <use xlink:href="#DejaVuSans-30"/>
       <use xlink:href="#DejaVuSans-2e" x="63.623047"/>
       <use xlink:href="#DejaVuSans-34" x="95.410156"/>
      </g>
     </g>
    </g>
    <g id="ytick_10">
     <g id="line2d_53">
      <path d="M 630.981818 243.072 
L 1036.8 243.072 
" clip-path="url(#pa55d943102)" style="fill: none; stroke: #fdf6e3"/>
     </g>
     <g id="line2d_54">
      <g>
       <use xlink:href="#mb7738120de" x="630.981818" y="243.072" style="fill: #657b83; stroke: #657b83; stroke-width: 0.8"/>
      </g>
     </g>
     <g id="text_31">
      <!-- 0.6 -->
      <g style="fill: #657b83" transform="translate(608.078693 246.871219)scale(0.1 -0.1)">
       <use xlink:href="#DejaVuSans-30"/>
       <use xlink:href="#DejaVuSans-2e" x="63.623047"/>
       <use xlink:href="#DejaVuSans-36" x="95.410156"/>
      </g>
     </g>
    </g>
    <g id="ytick_11">
     <g id="line2d_55">
      <path d="M 630.981818 156.096 
L 1036.8 156.096 
" clip-path="url(#pa55d943102)" style="fill: none; stroke: #fdf6e3"/>
     </g>
     <g id="line2d_56">
      <g>
       <use xlink:href="#mb7738120de" x="630.981818" y="156.096" style="fill: #657b83; stroke: #657b83; stroke-width: 0.8"/>
      </g>
     </g>
     <g id="text_32">
      <!-- 0.8 -->
      <g style="fill: #657b83" transform="translate(608.078693 159.895219)scale(0.1 -0.1)">
       <use xlink:href="#DejaVuSans-30"/>
       <use xlink:href="#DejaVuSans-2e" x="63.623047"/>
       <use xlink:href="#DejaVuSans-38" x="95.410156"/>
      </g>
     </g>
    </g>
    <g id="ytick_12">
     <g id="line2d_57">
      <path d="M 630.981818 69.12 
L 1036.8 69.12 
" clip-path="url(#pa55d943102)" style="fill: none; stroke: #fdf6e3"/>
     </g>
     <g id="line2d_58">
      <g>
       <use xlink:href="#mb7738120de" x="630.981818" y="69.12" style="fill: #657b83; stroke: #657b83; stroke-width: 0.8"/>
      </g>
     </g>
     <g id="text_33">
      <!-- 1.0 -->
      <g style="fill: #657b83" transform="translate(608.078693 72.919219)scale(0.1 -0.1)">
       <use xlink:href="#DejaVuSans-31"/>
       <use xlink:href="#DejaVuSans-2e" x="63.623047"/>
       <use xlink:href="#DejaVuSans-30" x="95.410156"/>
      </g>
     </g>
    </g>
    <g id="text_34">
     <!-- Precision -->
     <g style="fill: #657b83" transform="translate(601.583068 313.328438)rotate(-90)scale(0.12 -0.12)">
      <use xlink:href="#DejaVuSans-50"/>
      <use xlink:href="#DejaVuSans-72" x="58.552734"/>
      <use xlink:href="#DejaVuSans-65" x="97.416016"/>
      <use xlink:href="#DejaVuSans-63" x="158.939453"/>
      <use xlink:href="#DejaVuSans-69" x="213.919922"/>
      <use xlink:href="#DejaVuSans-73" x="241.703125"/>
      <use xlink:href="#DejaVuSans-69" x="293.802734"/>
      <use xlink:href="#DejaVuSans-6f" x="321.585938"/>
      <use xlink:href="#DejaVuSans-6e" x="382.767578"/>
     </g>
    </g>
   </g>
   <g id="patch_11">
    <path d="M 1037.184685 391.621052 
L 1037.21202 379.819173 
L 1037.398847 388.381011 
L 1037.138556 374.088302 
L 1036.27568 382.575278 
L 1035.689101 382.910133 
L 1033.030263 392.892204 
L 1032.406464 390.231513 
L 1028.613639 379.38597 
L 1023.014738 366.945482 
L 1008.898853 376.656391 
L 995.78497 349.445212 
L 977.387939 328.148328 
L 919.067702 280.871918 
L 872.410386 168.121932 
L 778.590142 85.432933 
L 704.206035 67.143567 
L 651.583112 69.12 
L 633.500731 69.12 
L 631.499613 69.12 
L 630.65727 69.12 
L 630.574386 69.12 
L 634.676253 69.12 
L 670.791359 73.904354 
L 735.753377 116.02665 
L 828.273597 236.83328 
L 890.537472 354.712364 
L 940.157454 407.395406 
L 974.28015 415.505133 
L 996.902362 423.499632 
L 1009.011342 425.30265 
L 1020.785433 433.068284 
L 1025.636042 436.625379 
L 1028.664213 437.700104 
L 1029.96827 426.043298 
L 1032.666945 434.761966 
L 1034.088231 444.55834 
L 1034.039798 447.469965 
L 1035.437023 433.922706 
L 1035.516764 438.083515 
z
" clip-path="url(#pa55d943102)" style="fill: #006ba4; opacity: 0.2; stroke: #006ba4; stroke-linejoin: miter"/>
   </g>
   <g id="patch_12">
    <path d="M 1037.159256 395.423461 
L 1037.229435 394.266362 
L 1037.120968 389.579324 
L 1036.113253 392.163706 
L 1033.449826 385.901766 
L 1032.061783 361.927136 
L 1026.77969 359.729256 
L 1017.418735 370.337339 
L 1009.273424 377.426861 
L 984.234846 337.803872 
L 953.164072 309.308497 
L 907.912959 250.198157 
L 822.587612 121.019594 
L 737.977501 67.435832 
L 657.749886 69.12 
L 633.641351 69.12 
L 630.981818 69.12 
L 630.981818 69.12 
L 630.981818 69.12 
L 630.981818 69.12 
L 630.981818 69.12 
L 630.981818 69.12 
L 630.981818 69.12 
L 630.981818 69.12 
L 630.504916 69.12 
L 645.719009 69.12 
L 708.792291 76.012086 
L 796.835038 164.842623 
L 876.254733 323.377775 
L 930.274523 377.545967 
L 965.163801 408.351406 
L 991.877897 422.674681 
L 1008.726652 425.675381 
L 1016.32169 437.669677 
L 1024.992208 434.446931 
L 1028.869861 435.938012 
L 1032.43409 437.569024 
L 1033.940278 440.607133 
L 1035.055491 441.093591 
L 1035.546395 449.473053 
z
" clip-path="url(#pa55d943102)" style="fill: #595959; opacity: 0.2; stroke: #595959; stroke-linejoin: miter"/>
   </g>
   <g id="line2d_59">
    <path d="M 1036.350725 414.852284 
L 1036.324521 406.870939 
L 1035.719322 417.925488 
L 1035.613394 409.323321 
L 1034.471312 408.668622 
L 1032.828686 404.476715 
L 1030.847238 415.296154 
L 1029.021253 413.428446 
L 1024.699536 406.227127 
L 1016.01304 396.124066 
L 1002.900607 400.078012 
L 985.03256 382.475173 
L 958.772696 367.771867 
L 904.802587 317.792141 
L 850.341991 202.477606 
L 757.17176 100.729792 
L 687.498697 70.52396 
L 643.129682 69.12 
L 632.037559 69.12 
L 631.078442 69.12 
" clip-path="url(#pa55d943102)" style="fill: none; stroke: #006ba4; stroke-width: 2"/>
   </g>
   <g id="line2d_60">
    <path d="M 1036.366341 407.503718 
L 1035.519856 410.478545 
L 1034.836566 402.971907 
L 1033.706846 416.331496 
L 1032.869081 420.26593 
L 1026.918431 414.212867 
L 1022.5469 413.14082 
L 1015.22097 401.731985 
L 1003.739451 391.134967 
L 979.764879 397.57693 
L 941.033054 351.083789 
L 889.907759 288.481057 
L 805.253404 138.277603 
L 722.625842 72.885821 
L 651.331601 69.12 
L 631.769979 69.12 
L 630.981818 69.12 
L 630.981818 69.12 
L 630.981818 69.12 
L 630.981818 69.12 
" clip-path="url(#pa55d943102)" style="fill: none; stroke: #ff800e; stroke-width: 2"/>
   </g>
   <g id="line2d_61">
    <path d="M 968.001702 385.037585 
L 948.783655 362.164416 
L 924.137936 328.724367 
L 892.192839 300.256217 
L 861.191869 236.059382 
L 816.871285 163.678144 
L 779.297365 102.903885 
L 726.741897 76.061436 
L 686.963572 70.154875 
L 654.69472 69.12 
L 638.317819 69.12 
L 631.965191 69.12 
L 631.176452 69.12 
L 630.981818 69.12 
L 630.981818 69.12 
L 630.981818 69.12 
L 630.981818 69.12 
L 630.981818 69.12 
L 630.981818 69.12 
L 630.981818 69.12 
" clip-path="url(#pa55d943102)" style="fill: none; stroke: #ababab; stroke-width: 2"/>
   </g>
   <g id="line2d_62">
    <path d="M 1036.352825 422.448257 
L 1036.142463 417.679976 
L 1035.530623 415.093228 
L 1034.273671 414.866365 
L 1031.159843 410.919889 
L 1028.526995 398.187033 
L 1021.55069 398.699467 
L 1013.072693 398.00636 
L 1000.57566 400.050771 
L 974.699324 373.077639 
L 941.719298 343.427232 
L 892.083846 286.787966 
L 809.711325 142.931109 
L 723.384896 71.723959 
L 651.734447 69.12 
L 632.073133 69.12 
L 630.981818 69.12 
L 630.981818 69.12 
L 630.981818 69.12 
L 630.981818 69.12 
" clip-path="url(#pa55d943102)" style="fill: none; stroke: #595959; stroke-width: 2"/>
   </g>
   <g id="line2d_63">
    <path d="M 631.937841 69.12 
L 733.730008 82.470126 
L 805.8289 142.17984 
L 849.050986 189.501878 
L 881.387629 240.375744 
L 907.087515 295.870378 
L 916.001519 300.534144 
L 929.592416 339.61536 
L 938.167487 349.356672 
L 949.107277 351.883525 
L 960.624154 357.288883 
L 969.869431 369.972053 
L 978.968509 380.610048 
L 986.91555 394.546814 
L 996.020589 403.10784 
L 1001.984571 390.922138 
L 1008.674644 403.412256 
L 1019.042329 411.604343 
L 1026.125303 422.513152 
L 1032.580966 408.765858 
" clip-path="url(#pa55d943102)" style="fill: none; stroke: #5f9ed1; stroke-width: 2"/>
   </g>
   <g id="patch_13">
    <path d="M 630.981818 504 
L 630.981818 69.12 
" style="fill: none; stroke: #eee8d5; stroke-width: 0.8; stroke-linejoin: miter; stroke-linecap: square"/>
   </g>
   <g id="patch_14">
    <path d="M 1036.8 504 
L 1036.8 69.12 
" style="fill: none; stroke: #eee8d5; stroke-width: 0.8; stroke-linejoin: miter; stroke-linecap: square"/>
   </g>
   <g id="patch_15">
    <path d="M 630.981818 504 
L 1036.8 504 
" style="fill: none; stroke: #eee8d5; stroke-width: 0.8; stroke-linejoin: miter; stroke-linecap: square"/>
   </g>
   <g id="patch_16">
    <path d="M 630.981818 69.12 
L 1036.8 69.12 
" style="fill: none; stroke: #eee8d5; stroke-width: 0.8; stroke-linejoin: miter; stroke-linecap: square"/>
   </g>
   <g id="text_35">
    <!-- Axis 2 -->
    <g transform="translate(809.660909 63.12)scale(0.16 -0.16)">
     <use xlink:href="#DejaVuSans-41"/>
     <use xlink:href="#DejaVuSans-78" x="68.408203"/>
     <use xlink:href="#DejaVuSans-69" x="127.587891"/>
     <use xlink:href="#DejaVuSans-73" x="155.371094"/>
     <use xlink:href="#DejaVuSans-20" x="207.470703"/>
     <use xlink:href="#DejaVuSans-32" x="239.257812"/>
    </g>
   </g>
   <g id="legend_2">
    <g id="patch_17">
     <path d="M 897.304688 150.78875 
L 1029.8 150.78875 
Q 1031.8 150.78875 1031.8 148.78875 
L 1031.8 76.12 
Q 1031.8 74.12 1029.8 74.12 
L 897.304688 74.12 
Q 895.304688 74.12 895.304688 76.12 
L 895.304688 148.78875 
Q 895.304688 150.78875 897.304688 150.78875 
z
" style="fill: #eee8d5; opacity: 0.8; stroke: #cccccc; stroke-linejoin: miter"/>
    </g>
    <g id="line2d_64">
     <path d="M 899.304688 82.218437 
L 909.304688 82.218437 
L 919.304688 82.218437 
" style="fill: none; stroke: #006ba4; stroke-width: 2"/>
    </g>
    <g id="text_36">
     <!-- antGLasso -->
     <g transform="translate(927.304688 85.718437)scale(0.1 -0.1)">
      <use xlink:href="#DejaVuSans-61"/>
      <use xlink:href="#DejaVuSans-6e" x="61.279297"/>
      <use xlink:href="#DejaVuSans-74" x="124.658203"/>
      <use xlink:href="#DejaVuSans-47" x="163.867188"/>
      <use xlink:href="#DejaVuSans-4c" x="241.357422"/>
      <use xlink:href="#DejaVuSans-61" x="297.070312"/>
      <use xlink:href="#DejaVuSans-73" x="358.349609"/>
      <use xlink:href="#DejaVuSans-73" x="410.449219"/>
      <use xlink:href="#DejaVuSans-6f" x="462.548828"/>
     </g>
    </g>
    <g id="line2d_65">
     <path d="M 899.304688 96.896563 
L 909.304688 96.896563 
L 919.304688 96.896563 
" style="fill: none; stroke: #ff800e; stroke-width: 2"/>
    </g>
    <g id="text_37">
     <!-- TeraLasso -->
     <g transform="translate(927.304688 100.396563)scale(0.1 -0.1)">
      <use xlink:href="#DejaVuSans-54"/>
      <use xlink:href="#DejaVuSans-65" x="44.083984"/>
      <use xlink:href="#DejaVuSans-72" x="105.607422"/>
      <use xlink:href="#DejaVuSans-61" x="146.720703"/>
      <use xlink:href="#DejaVuSans-4c" x="208"/>
      <use xlink:href="#DejaVuSans-61" x="263.712891"/>
      <use xlink:href="#DejaVuSans-73" x="324.992188"/>
      <use xlink:href="#DejaVuSans-73" x="377.091797"/>
      <use xlink:href="#DejaVuSans-6f" x="429.191406"/>
     </g>
    </g>
    <g id="line2d_66">
     <path d="M 899.304688 111.574687 
L 909.304688 111.574687 
L 919.304688 111.574687 
" style="fill: none; stroke: #ababab; stroke-width: 2"/>
    </g>
    <g id="text_38">
     <!-- scBiGLasso -->
     <g transform="translate(927.304688 115.074687)scale(0.1 -0.1)">
      <use xlink:href="#DejaVuSans-73"/>
      <use xlink:href="#DejaVuSans-63" x="52.099609"/>
      <use xlink:href="#DejaVuSans-42" x="107.080078"/>
      <use xlink:href="#DejaVuSans-69" x="175.683594"/>
      <use xlink:href="#DejaVuSans-47" x="203.466797"/>
      <use xlink:href="#DejaVuSans-4c" x="280.957031"/>
      <use xlink:href="#DejaVuSans-61" x="336.669922"/>
      <use xlink:href="#DejaVuSans-73" x="397.949219"/>
      <use xlink:href="#DejaVuSans-73" x="450.048828"/>
      <use xlink:href="#DejaVuSans-6f" x="502.148438"/>
     </g>
    </g>
    <g id="line2d_67">
     <path d="M 899.304688 126.252813 
L 909.304688 126.252813 
L 919.304688 126.252813 
" style="fill: none; stroke: #595959; stroke-width: 2"/>
    </g>
    <g id="text_39">
     <!-- EiGLasso -->
     <g transform="translate(927.304688 129.752813)scale(0.1 -0.1)">
      <use xlink:href="#DejaVuSans-45"/>
      <use xlink:href="#DejaVuSans-69" x="63.183594"/>
      <use xlink:href="#DejaVuSans-47" x="90.966797"/>
      <use xlink:href="#DejaVuSans-4c" x="168.457031"/>
      <use xlink:href="#DejaVuSans-61" x="224.169922"/>
      <use xlink:href="#DejaVuSans-73" x="285.449219"/>
      <use xlink:href="#DejaVuSans-73" x="337.548828"/>
      <use xlink:href="#DejaVuSans-6f" x="389.648438"/>
     </g>
    </g>
    <g id="line2d_68">
     <path d="M 899.304688 140.930938 
L 909.304688 140.930938 
L 919.304688 140.930938 
" style="fill: none; stroke: #5f9ed1; stroke-width: 2"/>
    </g>
    <g id="text_40">
     <!-- antGLasso_heuristic -->
     <g transform="translate(927.304688 144.430938)scale(0.1 -0.1)">
      <use xlink:href="#DejaVuSans-61"/>
      <use xlink:href="#DejaVuSans-6e" x="61.279297"/>
      <use xlink:href="#DejaVuSans-74" x="124.658203"/>
      <use xlink:href="#DejaVuSans-47" x="163.867188"/>
      <use xlink:href="#DejaVuSans-4c" x="241.357422"/>
      <use xlink:href="#DejaVuSans-61" x="297.070312"/>
      <use xlink:href="#DejaVuSans-73" x="358.349609"/>
      <use xlink:href="#DejaVuSans-73" x="410.449219"/>
      <use xlink:href="#DejaVuSans-6f" x="462.548828"/>
      <use xlink:href="#DejaVuSans-5f" x="523.730469"/>
      <use xlink:href="#DejaVuSans-68" x="573.730469"/>
      <use xlink:href="#DejaVuSans-65" x="637.109375"/>
      <use xlink:href="#DejaVuSans-75" x="698.632812"/>
      <use xlink:href="#DejaVuSans-72" x="762.011719"/>
      <use xlink:href="#DejaVuSans-69" x="803.125"/>
      <use xlink:href="#DejaVuSans-73" x="830.908203"/>
      <use xlink:href="#DejaVuSans-74" x="883.007812"/>
      <use xlink:href="#DejaVuSans-69" x="922.216797"/>
      <use xlink:href="#DejaVuSans-63" x="950"/>
     </g>
    </g>
   </g>
  </g>
  <g id="text_41">
   <!-- Precision/Recall Comparison 50 Samples Easy 50 by 50 -->
   <g transform="translate(354.67125 23.6775)scale(0.16 -0.16)">
    <defs>
     <path id="DejaVuSans-2f" d="M 1625 4666 
L 2156 4666 
L 531 -594 
L 0 -594 
L 1625 4666 
z
" transform="scale(0.015625)"/>
     <path id="DejaVuSans-43" d="M 4122 4306 
L 4122 3641 
Q 3803 3938 3442 4084 
Q 3081 4231 2675 4231 
Q 1875 4231 1450 3742 
Q 1025 3253 1025 2328 
Q 1025 1406 1450 917 
Q 1875 428 2675 428 
Q 3081 428 3442 575 
Q 3803 722 4122 1019 
L 4122 359 
Q 3791 134 3420 21 
Q 3050 -91 2638 -91 
Q 1578 -91 968 557 
Q 359 1206 359 2328 
Q 359 3453 968 4101 
Q 1578 4750 2638 4750 
Q 3056 4750 3426 4639 
Q 3797 4528 4122 4306 
z
" transform="scale(0.015625)"/>
     <path id="DejaVuSans-6d" d="M 3328 2828 
Q 3544 3216 3844 3400 
Q 4144 3584 4550 3584 
Q 5097 3584 5394 3201 
Q 5691 2819 5691 2113 
L 5691 0 
L 5113 0 
L 5113 2094 
Q 5113 2597 4934 2840 
Q 4756 3084 4391 3084 
Q 3944 3084 3684 2787 
Q 3425 2491 3425 1978 
L 3425 0 
L 2847 0 
L 2847 2094 
Q 2847 2600 2669 2842 
Q 2491 3084 2119 3084 
Q 1678 3084 1418 2786 
Q 1159 2488 1159 1978 
L 1159 0 
L 581 0 
L 581 3500 
L 1159 3500 
L 1159 2956 
Q 1356 3278 1631 3431 
Q 1906 3584 2284 3584 
Q 2666 3584 2933 3390 
Q 3200 3197 3328 2828 
z
" transform="scale(0.015625)"/>
     <path id="DejaVuSans-70" d="M 1159 525 
L 1159 -1331 
L 581 -1331 
L 581 3500 
L 1159 3500 
L 1159 2969 
Q 1341 3281 1617 3432 
Q 1894 3584 2278 3584 
Q 2916 3584 3314 3078 
Q 3713 2572 3713 1747 
Q 3713 922 3314 415 
Q 2916 -91 2278 -91 
Q 1894 -91 1617 61 
Q 1341 213 1159 525 
z
M 3116 1747 
Q 3116 2381 2855 2742 
Q 2594 3103 2138 3103 
Q 1681 3103 1420 2742 
Q 1159 2381 1159 1747 
Q 1159 1113 1420 752 
Q 1681 391 2138 391 
Q 2594 391 2855 752 
Q 3116 1113 3116 1747 
z
" transform="scale(0.015625)"/>
     <path id="DejaVuSans-35" d="M 691 4666 
L 3169 4666 
L 3169 4134 
L 1269 4134 
L 1269 2991 
Q 1406 3038 1543 3061 
Q 1681 3084 1819 3084 
Q 2600 3084 3056 2656 
Q 3513 2228 3513 1497 
Q 3513 744 3044 326 
Q 2575 -91 1722 -91 
Q 1428 -91 1123 -41 
Q 819 9 494 109 
L 494 744 
Q 775 591 1075 516 
Q 1375 441 1709 441 
Q 2250 441 2565 725 
Q 2881 1009 2881 1497 
Q 2881 1984 2565 2268 
Q 2250 2553 1709 2553 
Q 1456 2553 1204 2497 
Q 953 2441 691 2322 
L 691 4666 
z
" transform="scale(0.015625)"/>
     <path id="DejaVuSans-53" d="M 3425 4513 
L 3425 3897 
Q 3066 4069 2747 4153 
Q 2428 4238 2131 4238 
Q 1616 4238 1336 4038 
Q 1056 3838 1056 3469 
Q 1056 3159 1242 3001 
Q 1428 2844 1947 2747 
L 2328 2669 
Q 3034 2534 3370 2195 
Q 3706 1856 3706 1288 
Q 3706 609 3251 259 
Q 2797 -91 1919 -91 
Q 1588 -91 1214 -16 
Q 841 59 441 206 
L 441 856 
Q 825 641 1194 531 
Q 1563 422 1919 422 
Q 2459 422 2753 634 
Q 3047 847 3047 1241 
Q 3047 1584 2836 1778 
Q 2625 1972 2144 2069 
L 1759 2144 
Q 1053 2284 737 2584 
Q 422 2884 422 3419 
Q 422 4038 858 4394 
Q 1294 4750 2059 4750 
Q 2388 4750 2728 4690 
Q 3069 4631 3425 4513 
z
" transform="scale(0.015625)"/>
     <path id="DejaVuSans-79" d="M 2059 -325 
Q 1816 -950 1584 -1140 
Q 1353 -1331 966 -1331 
L 506 -1331 
L 506 -850 
L 844 -850 
Q 1081 -850 1212 -737 
Q 1344 -625 1503 -206 
L 1606 56 
L 191 3500 
L 800 3500 
L 1894 763 
L 2988 3500 
L 3597 3500 
L 2059 -325 
z
" transform="scale(0.015625)"/>
     <path id="DejaVuSans-62" d="M 3116 1747 
Q 3116 2381 2855 2742 
Q 2594 3103 2138 3103 
Q 1681 3103 1420 2742 
Q 1159 2381 1159 1747 
Q 1159 1113 1420 752 
Q 1681 391 2138 391 
Q 2594 391 2855 752 
Q 3116 1113 3116 1747 
z
M 1159 2969 
Q 1341 3281 1617 3432 
Q 1894 3584 2278 3584 
Q 2916 3584 3314 3078 
Q 3713 2572 3713 1747 
Q 3713 922 3314 415 
Q 2916 -91 2278 -91 
Q 1894 -91 1617 61 
Q 1341 213 1159 525 
L 1159 0 
L 581 0 
L 581 4863 
L 1159 4863 
L 1159 2969 
z
" transform="scale(0.015625)"/>
    </defs>
    <use xlink:href="#DejaVuSans-50"/>
    <use xlink:href="#DejaVuSans-72" x="58.552734"/>
    <use xlink:href="#DejaVuSans-65" x="97.416016"/>
    <use xlink:href="#DejaVuSans-63" x="158.939453"/>
    <use xlink:href="#DejaVuSans-69" x="213.919922"/>
    <use xlink:href="#DejaVuSans-73" x="241.703125"/>
    <use xlink:href="#DejaVuSans-69" x="293.802734"/>
    <use xlink:href="#DejaVuSans-6f" x="321.585938"/>
    <use xlink:href="#DejaVuSans-6e" x="382.767578"/>
    <use xlink:href="#DejaVuSans-2f" x="446.146484"/>
    <use xlink:href="#DejaVuSans-52" x="479.837891"/>
    <use xlink:href="#DejaVuSans-65" x="544.820312"/>
    <use xlink:href="#DejaVuSans-63" x="606.34375"/>
    <use xlink:href="#DejaVuSans-61" x="661.324219"/>
    <use xlink:href="#DejaVuSans-6c" x="722.603516"/>
    <use xlink:href="#DejaVuSans-6c" x="750.386719"/>
    <use xlink:href="#DejaVuSans-20" x="778.169922"/>
    <use xlink:href="#DejaVuSans-43" x="809.957031"/>
    <use xlink:href="#DejaVuSans-6f" x="879.78125"/>
    <use xlink:href="#DejaVuSans-6d" x="940.962891"/>
    <use xlink:href="#DejaVuSans-70" x="1038.375"/>
    <use xlink:href="#DejaVuSans-61" x="1101.851562"/>
    <use xlink:href="#DejaVuSans-72" x="1163.130859"/>
    <use xlink:href="#DejaVuSans-69" x="1204.244141"/>
    <use xlink:href="#DejaVuSans-73" x="1232.027344"/>
    <use xlink:href="#DejaVuSans-6f" x="1284.126953"/>
    <use xlink:href="#DejaVuSans-6e" x="1345.308594"/>
    <use xlink:href="#DejaVuSans-20" x="1408.6875"/>
    <use xlink:href="#DejaVuSans-35" x="1440.474609"/>
    <use xlink:href="#DejaVuSans-30" x="1504.097656"/>
    <use xlink:href="#DejaVuSans-20" x="1567.720703"/>
    <use xlink:href="#DejaVuSans-53" x="1599.507812"/>
    <use xlink:href="#DejaVuSans-61" x="1662.984375"/>
    <use xlink:href="#DejaVuSans-6d" x="1724.263672"/>
    <use xlink:href="#DejaVuSans-70" x="1821.675781"/>
    <use xlink:href="#DejaVuSans-6c" x="1885.152344"/>
    <use xlink:href="#DejaVuSans-65" x="1912.935547"/>
    <use xlink:href="#DejaVuSans-73" x="1974.458984"/>
    <use xlink:href="#DejaVuSans-20" x="2026.558594"/>
    <use xlink:href="#DejaVuSans-45" x="2058.345703"/>
    <use xlink:href="#DejaVuSans-61" x="2121.529297"/>
    <use xlink:href="#DejaVuSans-73" x="2182.808594"/>
    <use xlink:href="#DejaVuSans-79" x="2234.908203"/>
    <use xlink:href="#DejaVuSans-20" x="2294.087891"/>
    <use xlink:href="#DejaVuSans-35" x="2325.875"/>
    <use xlink:href="#DejaVuSans-30" x="2389.498047"/>
    <use xlink:href="#DejaVuSans-20" x="2453.121094"/>
    <use xlink:href="#DejaVuSans-62" x="2484.908203"/>
    <use xlink:href="#DejaVuSans-79" x="2548.384766"/>
    <use xlink:href="#DejaVuSans-20" x="2607.564453"/>
    <use xlink:href="#DejaVuSans-35" x="2639.351562"/>
    <use xlink:href="#DejaVuSans-30" x="2702.974609"/>
   </g>
  </g>
 </g>
 <defs>
  <clipPath id="p85d6d7a2e1">
   <rect x="144" y="69.12" width="405.818182" height="434.88"/>
  </clipPath>
  <clipPath id="pa55d943102">
   <rect x="630.981818" y="69.12" width="405.818182" height="434.88"/>
  </clipPath>
 </defs>
</svg>
